/* XPM */
static char *ddad43abf7c74b6f92a31113512e4044[] = {
/* columns rows colors chars-per-pixel */
"83 57 76 1 ",
"  c #00314D",
". c #003653",
"X c #023B56",
"o c #003E5A",
"O c #02425E",
"+ c #034661",
"@ c #034965",
"# c #004769",
"$ c #034D6A",
"% c #154F68",
"& c #03516F",
"* c #17556D",
"= c #014F70",
"- c #035271",
"; c #085473",
": c #0F5977",
"> c #035A7C",
", c #255C72",
"< c #F59D1F",
"1 c #F8AE06",
"2 c #F9AF08",
"3 c #FAB303",
"4 c #FCBD04",
"5 c #F9B208",
"6 c #FBBA0C",
"7 c #F6A41D",
"8 c #F8A61B",
"9 c #F7AB1B",
"0 c #F9AD1A",
"q c #F9B617",
"w c #FABC16",
"e c #F9B418",
"r c #FABB1A",
"t c #EF8427",
"y c #EF8826",
"u c #EF8128",
"i c #F28526",
"p c #F08A25",
"a c #F29422",
"s c #F39920",
"d c #F9B725",
"f c #F9B822",
"g c #FABD2B",
"h c #FABF38",
"j c #FCC002",
"k c #FDC30C",
"l c #FCC114",
"z c #FCC318",
"x c #FCC92D",
"c c #FBC744",
"v c #FCD34E",
"b c #FDD050",
"n c #035E82",
"m c #046185",
"M c #03658B",
"N c #03688F",
"B c #046D95",
"V c #04729C",
"C c #266882",
"Z c #336D83",
"A c #397289",
"S c #3A7B94",
"D c #0376A2",
"F c #0478A4",
"G c #0077A8",
"H c #047EAD",
"J c #4B798B",
"K c #467D92",
"L c #0981AF",
"P c #1E87AF",
"I c #0482B3",
"U c #0286B9",
"Y c #0488BA",
"T c #238CB3",
"R c #1895C5",
"E c None",
/* pixels */
"EEEEEEEEEEEEEEEEEEEEEEEEEEEEEEEEEEEEEEEEEEEEEEEEEEEEEEEEEEEEEEEEEEEEEEEEEEEEEEEEEEE",
"EEEEEEEEEE,XEEEEEEEEEEEEEEEEEEEEEEEEEEEEEEEEEEEEEEEEEEEEEEEEEEEEEEEEEEEEEEEEEEEEEEE",
"EEEEEEEEJo OEEEEEEEEEEEEEEEEEEEEEEEEEEEEEEEEEEEEEEEEEEEEEEEEEEEEEEEEEEEEEEEEEEEEEEE",
"EEEEEEE% oO+EEEEEEEEEEEEEEEEEEEEEEEEEEEEEEEEEEEEEEEEEEEEEEEEEEEEEEEEEEEEEEEEEEEEEEE",
"EEEEE*.X++O@@OO@+++O+OO+++++++++++++++++++++++++++++++++++++++++OO@EEEEEEEEEEEEEEEE",
"EEEZ+X+@+@@@@@@@++@+@@@@+++++++++++@++@++@++++++@++@@+@@+@+@@+@+@@@EEEEEEEEEEEEEEEE",
"EZOo+#@@@@@@@@@@@@@@@@@@@+@@@@@@@$@@@@@@@@@@@@@@@@@@@@@@@@@@@@@@@@$EEEEEEEEEEEEEEEE",
"EA+o+#$$$@$@$$@@$@$$@$@$$$$$$@$$$@@$$@$$$@$$@$$@$@$$@$$@$$@$$$@$$@#EEEEEEEEEEEEEEEE",
"EEEK#+#$$$$$$$$$$$$#$$$$$$&$$$$$$$$$$$&$$$$$$$$$$$$$$$$$$$$$$$$$$$$EEEEEEEEEEEEEEEE",
"EEEEEC$+$;&$&$&&&$&&$&&&&$&&$&&&;$;$&&&$&$$&&&&&&&&&&&&&$&&&&&$&&$$EEEEEEEEEEEEEEEE",
"EEEEEEE:@#--&-&&-&--&&&&&&&&&&&&&&&&&&&&&&&&&&&&&&&&&&&&&&&&&&&&&&-EEEEEEEEEEEEEEEE",
"EEEEEEEEE;#&EEEEEEEEEEEEEEEEEEEEEEEEEEEEEEEEEEEEEEEEEEEEEEEE---&---EEEEEEEEEEEEEEEE",
"EEEEEEEEEES$EEEEEEEEEEEEEEEEEEEEEEEEEEEEEEEEEEEEEEEEEEEEEEEE;-->-->EEEEEEEEEEEEEEEE",
"EEEEEEEEEEEEEEEEEEEEEEEEEEEEEEEEEEEEEEEEEEEEEEEEEEEEEEEEEEEE>>>-->>EEEEEEEEEEEEEEEE",
"EEEEEEEEEEEEEEEEEEEutuuuuuuuuuttuuuutuuuuuuutuuuuutuuutuEEEE>>>>;>>EEEEEEEEEEEEEEEE",
"EEEEEEEEEEEEEEEEEEEuutuuutttuuttutttuttuuututuuuutututuutEEE>>>;>>>EEEEEEEEEEEEEEEE",
"EEEEEEEEEEEEEEEEEEEyuuuytiyuuyttttttuuyuttttuuuytttttyytiEEE>>>>>>nEEEEEEEEEEEEEEEE",
"EEEEEEEEEEEEEEEEEEEyyyttttyytttttytttyyyyttttyyyttttttutiEEEmmnmnnnEEEEEEEEEEEEEEEE",
"EEEEEEEEEEEEEEEEEEEyyytytypptyytppyyypppyptpyyiipyyyppyypEEEmmmmnmmEEEEEEEEEEEEEEEE",
"EEEEEEEEEEEEEEEEEEEypyyyppppypppppyyipyppppyppppyppyypppiEEEmmmmmmmEEEEEEEEEEEEEEEE",
"EEEEEEEEEEEEEEEEEEEppppppppppppppyppppppppppiappppppppppaEEEmmMmMmMEEEEEEEEEEEEEEEE",
"EEEEEEEEEEEEEEEEEEEpppppppEEEEEEEEEEEEEEEEEEEEEEEEEEEEEEEEEEMMMMMMMEEEEEEEEEEEEEEEE",
"EEEEEEEEEEEEEEEEEEEppaapapEEEEEEEEEEEEEEEEEEEEEEEEEEEEEEEEEENNNNNNNEEEEEEEEEEEEEEEE",
"EEEEEEEEEEEEEEEEEEEpapaapaEEEEEEEEEEEEEEEEEEEEEEEEEEEEEEEEEENNNNNNNEEEEEEEEEEEEEEEE",
"EEEEEEEEEEEEEEEEEEEaaaapaaEEEEEEEEEEEEEEEEEEEEEEEEEEEEEEEEEEBBNBNNBEEEEEEEEEEEEEEEE",
"EEEEEEEEEEEEEEEEEEEsaaaaaaEEEBBBBBBBBBBBBBBBBBBBBBBBBBBBBBBBBBBBBBBEEEEEEEEEEEEEEEE",
"EEEEEEEEEEEEEEEEEEEaaaaaasEEEBBBBBBBVBBBBBBBBBBBBVBBBVBBBBVBBBBBBBBEEEEEEEEEEEEEEEE",
"EEEEEEEEEEEEEEEEEEEasassasEEEVVVVVVVVBVVVVVVVVVVBVVVBVVVVBVVVVVBVVVEEEEEEEEEEEEEEEE",
"EEEEEEEEEEEEEEEEEEEsssssssEEEVVVVVVVVVVVVVVVVVVVVVVVVVVVVVVVVVVVVVVEEEEEEEEEEEEEEEE",
"EEEEEEEEEEEEEEEEEEEsssss<sEEEVVVDVDVVVVDVVVDDVVVVDVVVFVVDVVVVDDVVVVEEEEEEEEEEEEEEEE",
"EEEEEEEEEEEEEEEEEEEsssssssEEEDDDDDDVDDDDDDDDDDVFFVFDFVVFFVDDDDDDDDDEEEEEEEEEEEEEEEE",
"EEEEEEEEEEEEEEEEEEE<7s7s<sEEEFDFFDDDDFFFFFDFDFFFFFFFFFFFFFDFFFDFFFFEEEEEEEEEEEEEEEE",
"EEEEEEEEEEEEEEEEEEE7<7<<<<EEEFFFFFGPEEEEEEEEEEEEEEEEEEEEEEEEEEEEEEEEEEEEEEEEEEEEEEE",
"EEEEEEEEEEEEEEEEEEE77<<777EEEFHFFHFTEEEEEEEEEEEEEEEEEEEEEEEEEEEEEEEEEEEEEEEEEEEEEEE",
"EEEEEEEEEEEEEEEEEEE7<77777EEEHHHHHFTEEEEEEEEEEEEEEEEEEEEEEEEEEEEEEEEEEEEEEEEEEEEEEE",
"EEEEEEEEEEEEEEEEEEE7777777EEEIHHHHHLHHHHHHHHHHHHHHIHHHHHHHHHHHIHHHHEEEEEEEEEEEEEEEE",
"EEEEEEEEEEEEEEEEEEE7777788EEEIIHHHIHHIHIHIHIHIHIIHHHIHHIIHHLIHIHIIHEEEEEEEEEEEEEEEE",
"EEEEEEEEEEEEEEEEEEE8979788EEEIIIIIIIIIIIIIIIIIIIIIIIIIIIIIUIIIIIIIIEEEEEEEEEEEEEEEE",
"EEEEEEEEEEEEEEEEEEE9998880EEEIIYYIIIIIIIIYIIIIIIIIIIIIIIIUIIIIUIIIIEEEEEEEEEEEEEEEE",
"EEEEEEEEEEEEEEEEEEE9099800EEEIYIYYYIYYYYIYYYIYYUYYYYYYYYIYIYYUYYYIYEEEEEEEEEEEEEEEE",
"EEEEEEEEEEEEEEEEEEE9999990EEEYUYYUYYYYYUYUUYYUYUYYUYYYYYYYUYYUYYYYYEEEEEEEEEEEEEEEE",
"EEEEEEEEEEEEEEEEEEE9e9e9e0EEEUUUUUUUUUUUUUUUUUUUUUUUUUUYUYUUUUUUUYUEEEEEEEEEEEEEEEE",
"EEEEEEEEEEEEEEEEEEE9e99e00EEERRRRRRRRRRRRRRRRRRRRRRRRRRRRRRRRRRRRRREEEEEEEEEEEEEEEE",
"EEEEEEEEEEEEEEEEEEEeee9eeeEEEEEEEEEEEEEEEEEEEEEEEEEEEEEEEEEEEEEEEEEEEEEEEEEEEEEEEEE",
"EEEEEEEEEEEEEEEEEEEeeeeeeeEEEEEEEEEEEEEEEEEEEEEEEEEEEEEEEEEEEEEEEEEEEEEedEEEEEEEEEE",
"EEEEEEEEEEEEEEEEEEEeeeeeqrEEEEEEEEEEEEEEEEEEEEEEEEEEEEEEEEEEEEEEEEEEEEEf22hEEEEEEEE",
"EEEEEEEEEEEEEEEEEEErqqeqqqeqqqqqeqqqqrqqeerrqqqrreeeqqwqqqqereeewqqqqqqqeq55gEEEEEE",
"EEEEEEEEEEEEEEEEEEEqwqqqwqqrwqqqrqqqqqwqreqqqqqqqerrqqqrqqeweerrrqqrqqqqrwqq5rcEEEE",
"EEEEEEEEEEEEEEEEEEErqwqwwqwwqwqwwwwwwwrqwrwwwqwwqrwqrwwqrwwqrwwqwwrqwwqwwrqwr63wEEE",
"EEEEEEEEEEEEEEEEEEEwwwwwwwwwwwwwwwqwwwwwwwqwwwwwwwwwwwwwwwwwwwwwqwwwrwwwwwwwwwq63rE",
"EEEEEEEEEEEEEEEEEEElwlwwwwwlwwlwwwwwwwwlwwwlwwwllwlwwwwlwwwwlwlwwlwwlwlwwwlwwlw66lE",
"EEEEEEEEEEEEEEEEEEEwlwlwllwlllwwlllwlllwllwlwlwllwlllwlwllllwlwlwlllwlwlllwlw64zEEE",
"EEEEEEEEEEEEEEEEEEEllllllllllllllllllllllllllllllllllllllllllllllllllllllllk4wbEEEE",
"EEEEEEEEEEEEEEEEEEEllllllllllllllllllllllllllllllllllllllllllzllllllllllll4kxEEEEEE",
"EEEEEEEEEEEEEEEEEEEEEEEEEEEEEEEEEEEEEEEEEEEEEEEEEEEEEEEEEEEEEEEEEEEEEEEEkjzEEEEEEEE",
"EEEEEEEEEEEEEEEEEEEEEEEEEEEEEEEEEEEEEEEEEEEEEEEEEEEEEEEEEEEEEEEEEEEEEEEEkvEEEEEEEEE",
"EEEEEEEEEEEEEEEEEEEEEEEEEEEEEEEEEEEEEEEEEEEEEEEEEEEEEEEEEEEEEEEEEEEEEEEEEEEEEEEEEEE"
};
